<mxfile host="Electron" modified="2023-12-21T10:07:51.996Z" agent="Mozilla/5.0 (Windows NT 10.0; Win64; x64) AppleWebKit/537.36 (KHTML, like Gecko) draw.io/21.2.8 Chrome/112.0.5615.165 Electron/24.2.0 Safari/537.36" etag="orxuT9BAtlgrq0gGUlTf" version="21.2.8" type="device">
  <diagram name="Страница 1" id="0xDSEUpRUCDkJVHBjyuL">
    <mxGraphModel dx="1707" dy="532" grid="1" gridSize="10" guides="1" tooltips="1" connect="1" arrows="1" fold="1" page="1" pageScale="1" pageWidth="827" pageHeight="1169" math="0" shadow="0">
      <root>
        <mxCell id="0" />
        <mxCell id="1" parent="0" />
        <mxCell id="73Fd0gQFirfjqIcQQ0K2-1" value="Главная страница" style="rounded=0;whiteSpace=wrap;html=1;" vertex="1" parent="1">
          <mxGeometry x="130" y="70" width="120" height="60" as="geometry" />
        </mxCell>
        <mxCell id="73Fd0gQFirfjqIcQQ0K2-2" value="Страница книги" style="rounded=0;whiteSpace=wrap;html=1;" vertex="1" parent="1">
          <mxGeometry x="130" y="200" width="120" height="60" as="geometry" />
        </mxCell>
        <mxCell id="73Fd0gQFirfjqIcQQ0K2-3" value="Форма регистрации" style="rounded=0;whiteSpace=wrap;html=1;" vertex="1" parent="1">
          <mxGeometry x="-10" y="200" width="120" height="60" as="geometry" />
        </mxCell>
        <mxCell id="73Fd0gQFirfjqIcQQ0K2-4" value="Страница чтения книги" style="rounded=0;whiteSpace=wrap;html=1;" vertex="1" parent="1">
          <mxGeometry x="130" y="330" width="120" height="60" as="geometry" />
        </mxCell>
        <mxCell id="73Fd0gQFirfjqIcQQ0K2-5" value="Форма авторизации" style="rounded=0;whiteSpace=wrap;html=1;" vertex="1" parent="1">
          <mxGeometry x="-10" y="330" width="120" height="60" as="geometry" />
        </mxCell>
        <mxCell id="73Fd0gQFirfjqIcQQ0K2-6" value="Странница обо мне" style="rounded=0;whiteSpace=wrap;html=1;" vertex="1" parent="1">
          <mxGeometry x="310" y="330" width="120" height="60" as="geometry" />
        </mxCell>
        <mxCell id="73Fd0gQFirfjqIcQQ0K2-7" value="Страницца аккаунт" style="rounded=0;whiteSpace=wrap;html=1;" vertex="1" parent="1">
          <mxGeometry x="310" y="200" width="120" height="60" as="geometry" />
        </mxCell>
        <mxCell id="73Fd0gQFirfjqIcQQ0K2-8" value="" style="endArrow=classic;html=1;rounded=0;exitX=0;exitY=0.5;exitDx=0;exitDy=0;entryX=0.5;entryY=0;entryDx=0;entryDy=0;edgeStyle=orthogonalEdgeStyle;" edge="1" parent="1" source="73Fd0gQFirfjqIcQQ0K2-1" target="73Fd0gQFirfjqIcQQ0K2-3">
          <mxGeometry width="50" height="50" relative="1" as="geometry">
            <mxPoint x="390" y="300" as="sourcePoint" />
            <mxPoint x="440" y="250" as="targetPoint" />
          </mxGeometry>
        </mxCell>
        <mxCell id="73Fd0gQFirfjqIcQQ0K2-9" value="" style="endArrow=none;startArrow=classic;html=1;rounded=0;exitX=0.5;exitY=0;exitDx=0;exitDy=0;entryX=0.5;entryY=1;entryDx=0;entryDy=0;startFill=1;endFill=0;" edge="1" parent="1" source="73Fd0gQFirfjqIcQQ0K2-5" target="73Fd0gQFirfjqIcQQ0K2-3">
          <mxGeometry width="50" height="50" relative="1" as="geometry">
            <mxPoint x="390" y="300" as="sourcePoint" />
            <mxPoint x="440" y="250" as="targetPoint" />
          </mxGeometry>
        </mxCell>
        <mxCell id="73Fd0gQFirfjqIcQQ0K2-10" value="" style="endArrow=classic;html=1;rounded=0;exitX=0.5;exitY=1;exitDx=0;exitDy=0;entryX=0.5;entryY=0;entryDx=0;entryDy=0;" edge="1" parent="1" source="73Fd0gQFirfjqIcQQ0K2-1" target="73Fd0gQFirfjqIcQQ0K2-2">
          <mxGeometry width="50" height="50" relative="1" as="geometry">
            <mxPoint x="390" y="300" as="sourcePoint" />
            <mxPoint x="440" y="250" as="targetPoint" />
          </mxGeometry>
        </mxCell>
        <mxCell id="73Fd0gQFirfjqIcQQ0K2-11" value="" style="endArrow=classic;html=1;rounded=0;exitX=0.5;exitY=1;exitDx=0;exitDy=0;entryX=0.5;entryY=0;entryDx=0;entryDy=0;" edge="1" parent="1" source="73Fd0gQFirfjqIcQQ0K2-2" target="73Fd0gQFirfjqIcQQ0K2-4">
          <mxGeometry width="50" height="50" relative="1" as="geometry">
            <mxPoint x="390" y="300" as="sourcePoint" />
            <mxPoint x="440" y="250" as="targetPoint" />
          </mxGeometry>
        </mxCell>
        <mxCell id="73Fd0gQFirfjqIcQQ0K2-12" value="Странница закладки" style="rounded=0;whiteSpace=wrap;html=1;" vertex="1" parent="1">
          <mxGeometry x="310" y="420" width="120" height="60" as="geometry" />
        </mxCell>
        <mxCell id="73Fd0gQFirfjqIcQQ0K2-13" value="" style="endArrow=classic;html=1;rounded=0;exitX=0.5;exitY=1;exitDx=0;exitDy=0;entryX=0.5;entryY=0;entryDx=0;entryDy=0;" edge="1" parent="1" source="73Fd0gQFirfjqIcQQ0K2-6" target="73Fd0gQFirfjqIcQQ0K2-12">
          <mxGeometry width="50" height="50" relative="1" as="geometry">
            <mxPoint x="390" y="300" as="sourcePoint" />
            <mxPoint x="440" y="250" as="targetPoint" />
          </mxGeometry>
        </mxCell>
        <mxCell id="73Fd0gQFirfjqIcQQ0K2-14" value="" style="endArrow=classic;html=1;rounded=0;exitX=0.5;exitY=1;exitDx=0;exitDy=0;entryX=0.5;entryY=0;entryDx=0;entryDy=0;" edge="1" parent="1" source="73Fd0gQFirfjqIcQQ0K2-7" target="73Fd0gQFirfjqIcQQ0K2-6">
          <mxGeometry width="50" height="50" relative="1" as="geometry">
            <mxPoint x="390" y="300" as="sourcePoint" />
            <mxPoint x="440" y="250" as="targetPoint" />
          </mxGeometry>
        </mxCell>
        <mxCell id="73Fd0gQFirfjqIcQQ0K2-15" value="" style="endArrow=classic;html=1;rounded=0;exitX=1;exitY=0.5;exitDx=0;exitDy=0;entryX=0.567;entryY=0.017;entryDx=0;entryDy=0;entryPerimeter=0;edgeStyle=orthogonalEdgeStyle;" edge="1" parent="1" source="73Fd0gQFirfjqIcQQ0K2-1" target="73Fd0gQFirfjqIcQQ0K2-7">
          <mxGeometry width="50" height="50" relative="1" as="geometry">
            <mxPoint x="390" y="300" as="sourcePoint" />
            <mxPoint x="440" y="250" as="targetPoint" />
          </mxGeometry>
        </mxCell>
        <mxCell id="73Fd0gQFirfjqIcQQ0K2-16" value="Страница подписки" style="rounded=0;whiteSpace=wrap;html=1;" vertex="1" parent="1">
          <mxGeometry x="470" y="200" width="120" height="60" as="geometry" />
        </mxCell>
        <mxCell id="73Fd0gQFirfjqIcQQ0K2-17" value="" style="endArrow=classic;html=1;rounded=0;exitX=1;exitY=0.5;exitDx=0;exitDy=0;entryX=0.5;entryY=0;entryDx=0;entryDy=0;edgeStyle=orthogonalEdgeStyle;" edge="1" parent="1" source="73Fd0gQFirfjqIcQQ0K2-1" target="73Fd0gQFirfjqIcQQ0K2-16">
          <mxGeometry width="50" height="50" relative="1" as="geometry">
            <mxPoint x="390" y="300" as="sourcePoint" />
            <mxPoint x="440" y="250" as="targetPoint" />
          </mxGeometry>
        </mxCell>
        <mxCell id="73Fd0gQFirfjqIcQQ0K2-18" value="Страница редактирования книги" style="rounded=0;whiteSpace=wrap;html=1;" vertex="1" parent="1">
          <mxGeometry x="1030" y="490" width="120" height="60" as="geometry" />
        </mxCell>
        <mxCell id="73Fd0gQFirfjqIcQQ0K2-19" value="Страница создания книги" style="rounded=0;whiteSpace=wrap;html=1;" vertex="1" parent="1">
          <mxGeometry x="1030" y="380" width="120" height="60" as="geometry" />
        </mxCell>
        <mxCell id="73Fd0gQFirfjqIcQQ0K2-20" value="Страница книги" style="rounded=0;whiteSpace=wrap;html=1;" vertex="1" parent="1">
          <mxGeometry x="1030" y="190" width="120" height="60" as="geometry" />
        </mxCell>
        <mxCell id="73Fd0gQFirfjqIcQQ0K2-21" value="Форма авторизации" style="rounded=0;whiteSpace=wrap;html=1;" vertex="1" parent="1">
          <mxGeometry x="827" y="320" width="120" height="60" as="geometry" />
        </mxCell>
        <mxCell id="73Fd0gQFirfjqIcQQ0K2-22" value="Форма регистраниции" style="rounded=0;whiteSpace=wrap;html=1;" vertex="1" parent="1">
          <mxGeometry x="827" y="190" width="120" height="60" as="geometry" />
        </mxCell>
        <mxCell id="73Fd0gQFirfjqIcQQ0K2-23" value="Главная страница" style="rounded=0;whiteSpace=wrap;html=1;" vertex="1" parent="1">
          <mxGeometry x="1030" y="90" width="120" height="60" as="geometry" />
        </mxCell>
        <mxCell id="73Fd0gQFirfjqIcQQ0K2-24" value="" style="endArrow=classic;html=1;rounded=0;exitX=0.5;exitY=1;exitDx=0;exitDy=0;entryX=0.5;entryY=0;entryDx=0;entryDy=0;" edge="1" parent="1" source="73Fd0gQFirfjqIcQQ0K2-22" target="73Fd0gQFirfjqIcQQ0K2-21">
          <mxGeometry width="50" height="50" relative="1" as="geometry">
            <mxPoint x="940" y="310" as="sourcePoint" />
            <mxPoint x="990" y="260" as="targetPoint" />
          </mxGeometry>
        </mxCell>
        <mxCell id="73Fd0gQFirfjqIcQQ0K2-25" value="" style="endArrow=classic;html=1;rounded=0;exitX=0;exitY=0.5;exitDx=0;exitDy=0;entryX=0.5;entryY=0;entryDx=0;entryDy=0;" edge="1" parent="1" source="73Fd0gQFirfjqIcQQ0K2-23" target="73Fd0gQFirfjqIcQQ0K2-22">
          <mxGeometry width="50" height="50" relative="1" as="geometry">
            <mxPoint x="940" y="310" as="sourcePoint" />
            <mxPoint x="990" y="260" as="targetPoint" />
          </mxGeometry>
        </mxCell>
        <mxCell id="73Fd0gQFirfjqIcQQ0K2-26" value="" style="endArrow=classic;html=1;rounded=0;entryX=0.5;entryY=0;entryDx=0;entryDy=0;exitX=0.5;exitY=1;exitDx=0;exitDy=0;" edge="1" parent="1" source="73Fd0gQFirfjqIcQQ0K2-20" target="73Fd0gQFirfjqIcQQ0K2-35">
          <mxGeometry width="50" height="50" relative="1" as="geometry">
            <mxPoint x="940" y="290" as="sourcePoint" />
            <mxPoint x="990" y="240" as="targetPoint" />
          </mxGeometry>
        </mxCell>
        <mxCell id="73Fd0gQFirfjqIcQQ0K2-27" value="" style="endArrow=classic;html=1;rounded=0;entryX=0.5;entryY=0;entryDx=0;entryDy=0;exitX=0.5;exitY=1;exitDx=0;exitDy=0;" edge="1" parent="1" source="73Fd0gQFirfjqIcQQ0K2-23" target="73Fd0gQFirfjqIcQQ0K2-20">
          <mxGeometry width="50" height="50" relative="1" as="geometry">
            <mxPoint x="940" y="290" as="sourcePoint" />
            <mxPoint x="990" y="240" as="targetPoint" />
          </mxGeometry>
        </mxCell>
        <mxCell id="73Fd0gQFirfjqIcQQ0K2-28" value="" style="endArrow=classic;html=1;rounded=0;entryX=0.5;entryY=0;entryDx=0;entryDy=0;exitX=0.5;exitY=1;exitDx=0;exitDy=0;" edge="1" parent="1" source="73Fd0gQFirfjqIcQQ0K2-19" target="73Fd0gQFirfjqIcQQ0K2-18">
          <mxGeometry width="50" height="50" relative="1" as="geometry">
            <mxPoint x="1100" y="340" as="sourcePoint" />
            <mxPoint x="1100" y="390" as="targetPoint" />
          </mxGeometry>
        </mxCell>
        <mxCell id="73Fd0gQFirfjqIcQQ0K2-35" value="Форма удаления книги" style="rounded=0;whiteSpace=wrap;html=1;" vertex="1" parent="1">
          <mxGeometry x="1030" y="290" width="120" height="60" as="geometry" />
        </mxCell>
        <mxCell id="73Fd0gQFirfjqIcQQ0K2-36" value="" style="endArrow=classic;html=1;rounded=0;exitX=0.5;exitY=1;exitDx=0;exitDy=0;entryX=0.5;entryY=0;entryDx=0;entryDy=0;" edge="1" parent="1" source="73Fd0gQFirfjqIcQQ0K2-35" target="73Fd0gQFirfjqIcQQ0K2-19">
          <mxGeometry width="50" height="50" relative="1" as="geometry">
            <mxPoint x="1140" y="380" as="sourcePoint" />
            <mxPoint x="1190" y="330" as="targetPoint" />
          </mxGeometry>
        </mxCell>
        <mxCell id="73Fd0gQFirfjqIcQQ0K2-53" value="Страница редактирования категории" style="rounded=0;whiteSpace=wrap;html=1;" vertex="1" parent="1">
          <mxGeometry x="1181" y="490" width="120" height="60" as="geometry" />
        </mxCell>
        <mxCell id="73Fd0gQFirfjqIcQQ0K2-54" value="Страница создания категории" style="rounded=0;whiteSpace=wrap;html=1;" vertex="1" parent="1">
          <mxGeometry x="1181" y="380" width="120" height="60" as="geometry" />
        </mxCell>
        <mxCell id="73Fd0gQFirfjqIcQQ0K2-55" value="Страница категории" style="rounded=0;whiteSpace=wrap;html=1;" vertex="1" parent="1">
          <mxGeometry x="1181" y="190" width="120" height="60" as="geometry" />
        </mxCell>
        <mxCell id="73Fd0gQFirfjqIcQQ0K2-56" value="" style="endArrow=classic;html=1;rounded=0;entryX=0.5;entryY=0;entryDx=0;entryDy=0;exitX=0.5;exitY=1;exitDx=0;exitDy=0;" edge="1" parent="1" source="73Fd0gQFirfjqIcQQ0K2-55" target="73Fd0gQFirfjqIcQQ0K2-59">
          <mxGeometry width="50" height="50" relative="1" as="geometry">
            <mxPoint x="1091" y="290" as="sourcePoint" />
            <mxPoint x="1141" y="240" as="targetPoint" />
          </mxGeometry>
        </mxCell>
        <mxCell id="73Fd0gQFirfjqIcQQ0K2-57" value="" style="endArrow=classic;html=1;rounded=0;entryX=0.5;entryY=0;entryDx=0;entryDy=0;exitX=1;exitY=0.5;exitDx=0;exitDy=0;edgeStyle=orthogonalEdgeStyle;" edge="1" parent="1" target="73Fd0gQFirfjqIcQQ0K2-55" source="73Fd0gQFirfjqIcQQ0K2-23">
          <mxGeometry width="50" height="50" relative="1" as="geometry">
            <mxPoint x="1241" y="150" as="sourcePoint" />
            <mxPoint x="1141" y="240" as="targetPoint" />
          </mxGeometry>
        </mxCell>
        <mxCell id="73Fd0gQFirfjqIcQQ0K2-58" value="" style="endArrow=classic;html=1;rounded=0;entryX=0.5;entryY=0;entryDx=0;entryDy=0;exitX=0.5;exitY=1;exitDx=0;exitDy=0;" edge="1" parent="1" source="73Fd0gQFirfjqIcQQ0K2-54" target="73Fd0gQFirfjqIcQQ0K2-53">
          <mxGeometry width="50" height="50" relative="1" as="geometry">
            <mxPoint x="1251" y="340" as="sourcePoint" />
            <mxPoint x="1251" y="390" as="targetPoint" />
          </mxGeometry>
        </mxCell>
        <mxCell id="73Fd0gQFirfjqIcQQ0K2-59" value="Форма удаления категории" style="rounded=0;whiteSpace=wrap;html=1;" vertex="1" parent="1">
          <mxGeometry x="1181" y="290" width="120" height="60" as="geometry" />
        </mxCell>
        <mxCell id="73Fd0gQFirfjqIcQQ0K2-60" value="" style="endArrow=classic;html=1;rounded=0;exitX=0.5;exitY=1;exitDx=0;exitDy=0;entryX=0.5;entryY=0;entryDx=0;entryDy=0;" edge="1" parent="1" source="73Fd0gQFirfjqIcQQ0K2-59" target="73Fd0gQFirfjqIcQQ0K2-54">
          <mxGeometry width="50" height="50" relative="1" as="geometry">
            <mxPoint x="1291" y="380" as="sourcePoint" />
            <mxPoint x="1341" y="330" as="targetPoint" />
          </mxGeometry>
        </mxCell>
        <mxCell id="73Fd0gQFirfjqIcQQ0K2-61" value="Страница редактирования жанров" style="rounded=0;whiteSpace=wrap;html=1;" vertex="1" parent="1">
          <mxGeometry x="1330" y="490" width="120" height="60" as="geometry" />
        </mxCell>
        <mxCell id="73Fd0gQFirfjqIcQQ0K2-62" value="Страница создания жанров" style="rounded=0;whiteSpace=wrap;html=1;" vertex="1" parent="1">
          <mxGeometry x="1330" y="380" width="120" height="60" as="geometry" />
        </mxCell>
        <mxCell id="73Fd0gQFirfjqIcQQ0K2-63" value="Страница жанров" style="rounded=0;whiteSpace=wrap;html=1;" vertex="1" parent="1">
          <mxGeometry x="1330" y="190" width="120" height="60" as="geometry" />
        </mxCell>
        <mxCell id="73Fd0gQFirfjqIcQQ0K2-64" value="" style="endArrow=classic;html=1;rounded=0;entryX=0.5;entryY=0;entryDx=0;entryDy=0;exitX=0.5;exitY=1;exitDx=0;exitDy=0;" edge="1" parent="1" source="73Fd0gQFirfjqIcQQ0K2-63" target="73Fd0gQFirfjqIcQQ0K2-67">
          <mxGeometry width="50" height="50" relative="1" as="geometry">
            <mxPoint x="1240" y="290" as="sourcePoint" />
            <mxPoint x="1290" y="240" as="targetPoint" />
          </mxGeometry>
        </mxCell>
        <mxCell id="73Fd0gQFirfjqIcQQ0K2-65" value="" style="endArrow=classic;html=1;rounded=0;entryX=0.5;entryY=0;entryDx=0;entryDy=0;exitX=1;exitY=0.5;exitDx=0;exitDy=0;edgeStyle=orthogonalEdgeStyle;" edge="1" parent="1" target="73Fd0gQFirfjqIcQQ0K2-63" source="73Fd0gQFirfjqIcQQ0K2-23">
          <mxGeometry width="50" height="50" relative="1" as="geometry">
            <mxPoint x="1390" y="150" as="sourcePoint" />
            <mxPoint x="1290" y="240" as="targetPoint" />
          </mxGeometry>
        </mxCell>
        <mxCell id="73Fd0gQFirfjqIcQQ0K2-66" value="" style="endArrow=classic;html=1;rounded=0;entryX=0.5;entryY=0;entryDx=0;entryDy=0;exitX=0.5;exitY=1;exitDx=0;exitDy=0;" edge="1" parent="1" source="73Fd0gQFirfjqIcQQ0K2-62" target="73Fd0gQFirfjqIcQQ0K2-61">
          <mxGeometry width="50" height="50" relative="1" as="geometry">
            <mxPoint x="1400" y="340" as="sourcePoint" />
            <mxPoint x="1400" y="390" as="targetPoint" />
          </mxGeometry>
        </mxCell>
        <mxCell id="73Fd0gQFirfjqIcQQ0K2-67" value="Форма удаления жанров" style="rounded=0;whiteSpace=wrap;html=1;" vertex="1" parent="1">
          <mxGeometry x="1330" y="290" width="120" height="60" as="geometry" />
        </mxCell>
        <mxCell id="73Fd0gQFirfjqIcQQ0K2-68" value="" style="endArrow=classic;html=1;rounded=0;exitX=0.5;exitY=1;exitDx=0;exitDy=0;entryX=0.5;entryY=0;entryDx=0;entryDy=0;" edge="1" parent="1" source="73Fd0gQFirfjqIcQQ0K2-67" target="73Fd0gQFirfjqIcQQ0K2-62">
          <mxGeometry width="50" height="50" relative="1" as="geometry">
            <mxPoint x="1440" y="380" as="sourcePoint" />
            <mxPoint x="1490" y="330" as="targetPoint" />
          </mxGeometry>
        </mxCell>
        <mxCell id="73Fd0gQFirfjqIcQQ0K2-69" value="Страница редактирования авторов" style="rounded=0;whiteSpace=wrap;html=1;" vertex="1" parent="1">
          <mxGeometry x="1470" y="490" width="120" height="60" as="geometry" />
        </mxCell>
        <mxCell id="73Fd0gQFirfjqIcQQ0K2-70" value="Страница создания авторов" style="rounded=0;whiteSpace=wrap;html=1;" vertex="1" parent="1">
          <mxGeometry x="1470" y="380" width="120" height="60" as="geometry" />
        </mxCell>
        <mxCell id="73Fd0gQFirfjqIcQQ0K2-71" value="Страница авторов" style="rounded=0;whiteSpace=wrap;html=1;" vertex="1" parent="1">
          <mxGeometry x="1470" y="190" width="120" height="60" as="geometry" />
        </mxCell>
        <mxCell id="73Fd0gQFirfjqIcQQ0K2-72" value="" style="endArrow=classic;html=1;rounded=0;entryX=0.5;entryY=0;entryDx=0;entryDy=0;exitX=0.5;exitY=1;exitDx=0;exitDy=0;" edge="1" parent="1" source="73Fd0gQFirfjqIcQQ0K2-71" target="73Fd0gQFirfjqIcQQ0K2-75">
          <mxGeometry width="50" height="50" relative="1" as="geometry">
            <mxPoint x="1380" y="290" as="sourcePoint" />
            <mxPoint x="1430" y="240" as="targetPoint" />
          </mxGeometry>
        </mxCell>
        <mxCell id="73Fd0gQFirfjqIcQQ0K2-73" value="" style="endArrow=classic;html=1;rounded=0;entryX=0.5;entryY=0;entryDx=0;entryDy=0;exitX=1;exitY=0.5;exitDx=0;exitDy=0;edgeStyle=orthogonalEdgeStyle;" edge="1" parent="1" target="73Fd0gQFirfjqIcQQ0K2-71" source="73Fd0gQFirfjqIcQQ0K2-23">
          <mxGeometry width="50" height="50" relative="1" as="geometry">
            <mxPoint x="1530" y="150" as="sourcePoint" />
            <mxPoint x="1430" y="240" as="targetPoint" />
          </mxGeometry>
        </mxCell>
        <mxCell id="73Fd0gQFirfjqIcQQ0K2-74" value="" style="endArrow=classic;html=1;rounded=0;entryX=0.5;entryY=0;entryDx=0;entryDy=0;exitX=0.5;exitY=1;exitDx=0;exitDy=0;" edge="1" parent="1" source="73Fd0gQFirfjqIcQQ0K2-70" target="73Fd0gQFirfjqIcQQ0K2-69">
          <mxGeometry width="50" height="50" relative="1" as="geometry">
            <mxPoint x="1540" y="340" as="sourcePoint" />
            <mxPoint x="1540" y="390" as="targetPoint" />
          </mxGeometry>
        </mxCell>
        <mxCell id="73Fd0gQFirfjqIcQQ0K2-75" value="Форма удаления авторов" style="rounded=0;whiteSpace=wrap;html=1;" vertex="1" parent="1">
          <mxGeometry x="1470" y="290" width="120" height="60" as="geometry" />
        </mxCell>
        <mxCell id="73Fd0gQFirfjqIcQQ0K2-76" value="" style="endArrow=classic;html=1;rounded=0;exitX=0.5;exitY=1;exitDx=0;exitDy=0;entryX=0.5;entryY=0;entryDx=0;entryDy=0;" edge="1" parent="1" source="73Fd0gQFirfjqIcQQ0K2-75" target="73Fd0gQFirfjqIcQQ0K2-70">
          <mxGeometry width="50" height="50" relative="1" as="geometry">
            <mxPoint x="1580" y="380" as="sourcePoint" />
            <mxPoint x="1630" y="330" as="targetPoint" />
          </mxGeometry>
        </mxCell>
        <mxCell id="73Fd0gQFirfjqIcQQ0K2-77" value="Страница редактирования издательств" style="rounded=0;whiteSpace=wrap;html=1;" vertex="1" parent="1">
          <mxGeometry x="1610" y="490" width="120" height="60" as="geometry" />
        </mxCell>
        <mxCell id="73Fd0gQFirfjqIcQQ0K2-78" value="Страница создания издательств" style="rounded=0;whiteSpace=wrap;html=1;" vertex="1" parent="1">
          <mxGeometry x="1610" y="380" width="120" height="60" as="geometry" />
        </mxCell>
        <mxCell id="73Fd0gQFirfjqIcQQ0K2-79" value="Страница издательств" style="rounded=0;whiteSpace=wrap;html=1;" vertex="1" parent="1">
          <mxGeometry x="1610" y="190" width="120" height="60" as="geometry" />
        </mxCell>
        <mxCell id="73Fd0gQFirfjqIcQQ0K2-80" value="" style="endArrow=classic;html=1;rounded=0;entryX=0.5;entryY=0;entryDx=0;entryDy=0;exitX=0.5;exitY=1;exitDx=0;exitDy=0;" edge="1" parent="1" source="73Fd0gQFirfjqIcQQ0K2-79" target="73Fd0gQFirfjqIcQQ0K2-82">
          <mxGeometry width="50" height="50" relative="1" as="geometry">
            <mxPoint x="1520" y="290" as="sourcePoint" />
            <mxPoint x="1570" y="240" as="targetPoint" />
          </mxGeometry>
        </mxCell>
        <mxCell id="73Fd0gQFirfjqIcQQ0K2-81" value="" style="endArrow=classic;html=1;rounded=0;entryX=0.5;entryY=0;entryDx=0;entryDy=0;exitX=0.5;exitY=1;exitDx=0;exitDy=0;" edge="1" parent="1" source="73Fd0gQFirfjqIcQQ0K2-78" target="73Fd0gQFirfjqIcQQ0K2-77">
          <mxGeometry width="50" height="50" relative="1" as="geometry">
            <mxPoint x="1680" y="340" as="sourcePoint" />
            <mxPoint x="1680" y="390" as="targetPoint" />
          </mxGeometry>
        </mxCell>
        <mxCell id="73Fd0gQFirfjqIcQQ0K2-82" value="Форма удаления издательств" style="rounded=0;whiteSpace=wrap;html=1;" vertex="1" parent="1">
          <mxGeometry x="1610" y="290" width="120" height="60" as="geometry" />
        </mxCell>
        <mxCell id="73Fd0gQFirfjqIcQQ0K2-83" value="" style="endArrow=classic;html=1;rounded=0;exitX=0.5;exitY=1;exitDx=0;exitDy=0;entryX=0.5;entryY=0;entryDx=0;entryDy=0;" edge="1" parent="1" source="73Fd0gQFirfjqIcQQ0K2-82" target="73Fd0gQFirfjqIcQQ0K2-78">
          <mxGeometry width="50" height="50" relative="1" as="geometry">
            <mxPoint x="1720" y="380" as="sourcePoint" />
            <mxPoint x="1770" y="330" as="targetPoint" />
          </mxGeometry>
        </mxCell>
        <mxCell id="73Fd0gQFirfjqIcQQ0K2-84" value="" style="endArrow=classic;html=1;rounded=0;exitX=1;exitY=0.5;exitDx=0;exitDy=0;entryX=0.5;entryY=0;entryDx=0;entryDy=0;edgeStyle=orthogonalEdgeStyle;" edge="1" parent="1" source="73Fd0gQFirfjqIcQQ0K2-23" target="73Fd0gQFirfjqIcQQ0K2-79">
          <mxGeometry width="50" height="50" relative="1" as="geometry">
            <mxPoint x="1540" y="380" as="sourcePoint" />
            <mxPoint x="1590" y="330" as="targetPoint" />
          </mxGeometry>
        </mxCell>
      </root>
    </mxGraphModel>
  </diagram>
</mxfile>
